<svg id="visual" viewBox="0 0 900 600" width="900" height="600" xmlns="http://www.w3.org/2000/svg" xmlns:xlink="http://www.w3.org/1999/xlink" version="1.1"><path d="M0 389L21.5 401.5C43 414 86 439 128.8 448C171.7 457 214.3 450 257.2 457.7C300 465.3 343 487.7 385.8 481.5C428.7 475.3 471.3 440.7 514.2 434C557 427.3 600 448.7 642.8 466.8C685.7 485 728.3 500 771.2 502.8C814 505.7 857 496.3 878.5 491.7L900 487L900 601L878.5 601C857 601 814 601 771.2 601C728.3 601 685.7 601 642.8 601C600 601 557 601 514.2 601C471.3 601 428.7 601 385.8 601C343 601 300 601 257.2 601C214.3 601 171.7 601 128.8 601C86 601 43 601 21.5 601L0 601Z" fill="#0066FF" stroke-linecap="round" stroke-linejoin="miter"></path></svg>